<svg width="25" height="25" viewBox="0 0 25 25" fill="none" xmlns="http://www.w3.org/2000/svg">
<g clip-path="url(#clip0_1_324)">
<path d="M19.62 2H-2.62118C-3.38278 2.00038 -4.00019 2.61817 -4 3.37997V25.6212C-3.99962 26.3828 -3.38183 27.0002 -2.62003 27H19.62C20.382 27.0002 20.9998 26.3826 21 25.6206C21 25.6204 21 25.6202 21 25.62V3.37882C20.9996 2.61722 20.3818 1.99981 19.62 2V2Z" fill="#4267B2"/>
<path d="M17.2607 25V15.3321H20.52L21.0083 11.5479H17.2607V9.13776C17.2607 8.04466 17.5642 7.29984 19.1317 7.29984H21.1182V3.92441C20.7726 3.87844 19.5868 3.77563 18.207 3.77563C15.3261 3.77563 13.3545 5.53345 13.3545 8.76297V11.5479H10.1074V15.3321H13.3545V25H17.2607Z" fill="white"/>
</g>
<defs>
<clipPath id="clip0_1_324">
<rect width="25" height="25" fill="white"/>
</clipPath>
</defs>
</svg>
